IMDB: http://www.imdb.com/title/tt0117372/?ref_=fn_al_tt_1
PLOT:
Good natured Reverend Henry Biggs finds that his marriage to choir mistress Julia is flagging, due to his constant absence caring for the deprived neighborhood they live in. On top of all this, his church is coming under threat from property developer Joe Hamilton. In desperation, Rev. Biggs prays to God for help - and help arrives in the form of an angel named Dudley. However, Dudley's arrival seems to cause even more trouble...




Complete name : C:Movies!The Preacher's Wife (1996)The Preacher's Wife 1996 DVDRip X264 AC3 - Sifu73.m4v
Format : MPEG-4
Format profile : Base Media / Version 2
Codec ID : mp42
File size : 2.44 GiB
Duration : 2h 3mn
Overall bit rate mode : Variable
Overall bit rate : 2 827 Kbps
Encoded date : UTC 2012-12-22 23:02:12
Tagged date : UTC 2012-12-23 00:13:41
Writing application : HandBrake 0.9.5 2011010300

Video
ID : 1
Format : AVC
Format/Info : Advanced Video Codec
Format profile : High@L3.0
Format settings, CABAC : Yes
Format settings, ReFrames : 4 frames
Codec ID : avc1
Codec ID/Info : Advanced Video Coding
Duration : 2h 3mn
Bit rate mode : Variable
Bit rate : 2 375 Kbps
Width : 720 pixels
Height : 352 pixels
Display aspect ratio : 16:9
Original display aspect ratio : 16:9
Frame rate mode : Variable
Frame rate : 23.976 fps
Minimum frame rate : 23.974 fps
Maximum frame rate : 23.981 fps
Color space : YUV
Chroma subsampling : 4:2:0
Bit depth : 8 bits
Scan type : Progressive
Bits/(Pixel*Frame) : 0.391
Stream size : 2.05 GiB (84%)
Writing library : x264 core 112
Encoding settings : cabac=1 / ref=3 / deblock=1:0:0 / analyse=0x3:0x113 / me=hex / subme=7 / psy=1 / psy_rd=1.00:0.00 / mixed_ref=1 / me_range=16 / chroma_me=1 / trellis=1 / 8x8dct=1 / cqm=0 / deadzone=21,11 / fast_pskip=1 / chroma_qp_offset=-2 / threads=6 / sliced_threads=0 / nr=0 / decimate=1 / interlaced=0 / constrained_intra=0 / bframes=3 / b_pyramid=2 / b_adapt=2 / b_bias=0 / direct=1 / weightb=1 / open_gop=0 / weightp=2 / keyint=240 / keyint_min=23 / scenecut=40 / intra_refresh=0 / rc_lookahead=50 / rc=2pass / mbtree=1 / bitrate=2375 / ratetol=1.0 / qcomp=0.60 / qpmin=3 / qpmax=51 / qpstep=4 / cplxblur=20.0 / qblur=0.5 / ip_ratio=1.40 / aq=1:1.00
Encoded date : UTC 2012-12-22 23:02:12
Tagged date : UTC 2012-12-23 00:13:41
Color primaries : BT.601 NTSC
Transfer characteristics : BT.709
Matrix coefficients : BT.601

Audio
ID : 2
Format : AC-3
Format/Info : Audio Coding 3
Mode extension : CM (complete main)
Format settings, Endianness : Big
Codec ID : ac-3
Duration : 2h 3mn
Bit rate mode : Constant
Bit rate : 448 Kbps
Channel(s) : 6 channels
Channel positions : Front: L C R, Side: L R, LFE
Sampling rate : 48.0 KHz
Bit depth : 16 bits
Compression mode : Lossy
Delay relative to video : 83ms
Stream size : 397 MiB (16%)
Language : English
Encoded date : UTC 2012-12-22 23:02:12
Tagged date : UTC 2012-12-23 00:13:41


NOTES:

THIS IS MY FIRST UPLOAD IN OVER 4 YEARS AND MY FIRST USING SOFTWARE FOR H264 ENCODING! PLEASE BE KIND! I WELCOME ANY AND ALL CRITICISMS, TIPS, AND ADVICE! PLEASE SHARE THEM WITH ME SO I CAN LEARN TO IMPROVE AS I CONTINUE TO POST MORE AND MORE MOVIES! PLEASE POINT OUT ANY AND ALL MISTAKES! I WILL BE USING PROBABLY BOTH HANDBRAKE AND RIPBOT FOR FUTURE POSTS! RIPBOT FOR MOVIES WITH FOREIGN LANGUAGE SO AS TO HARDCODE THE SUBS FOR THOSE PARTS AND HANDBRAKE FOR ALL OTHERS! ALSO, I HAVE A DSL CONNECTION SO PLEASE BE PATIENT! I WILL GIVE YOU MY FULL BANDWIDTH UNTIL SOME SEEDERS GET ON BOARD!!!

Greets: KingBen, BLaZE, KK, Paulx1, Scuba Steve, Ryd3R, Honch, Linzi, Bingo, IceBane and the rest Of the Kingdom RG, UKB RG & Release-Lounge, smallz, UFCFAN, Tater44, Jayz09, LordSith, Legion, Feature, And Many More. Thanks to all those who make it possible. HUGE THANKS TO LINZI, BINGO AND SCUBA STEVE FOR THE ASSIST AND HELP! IT IS GREATLY APPRECIATED!!!